# xmcd CD database file
#
# Track frame offsets:
#	187
#	32095
#	57990
#	87512
#	124600
#	147562
#
# Disc length: 2354 seconds
#
# Revision: 0
# Processed by: cddbd v1.4PL0 Copyright (c) Steve Scherf et al.
# Submitted via: CDex 1.50
#
DISCID=53093006
DTITLE=Bill Evans - Interplay
DYEAR=1987
DGENRE=Jazz
TTITLE0=You and the night and the music
TTITLE1=When you wish upon a star
TTITLE2=I'll never smile again
TTITLE3=Interplay
TTITLE4=You go to my head
TTITLE5=Wrap your troubles in dreams
EXTD=YEAR: 1987
EXTT0=
EXTT1=
EXTT2=
EXTT3=
EXTT4=
EXTT5=
PLAYORDER=
